<svg version="1.2" xmlns="http://www.w3.org/2000/svg" viewBox="0 0 600 400" width="600" height="400">
	<style>
		tspan { white-space:pre } 
		.s0 { fill: #ffffff } 
	</style>
	<g id="isotipo">
		<path id="Ticket" fill-rule="evenodd" class="s0" d="m514.89 95c0 0 0.27 25.21 0 30-2.41 46.56-19.6 20.75-41 54-2.01 3.41-8.32 19.62-2 36 6.31 16.38 16.59 21.25 29 28 12.41 6.75 13 15 13 15 0 0 0.18 23.03 0 34 1.33 27.2-13.29 27.2-23 27.2-4.19 0-372.62-0.96-385-1.2-12.38-0.24-19.36-6.16-20-17-0.64-10.84-0.12-14.13 0-31 0.12-16.87 1.1-19.07 10-25 4.79-2.89 13.63-5.79 26-20 12.36-14.21 8.04-29.65 6-41-4.33-10.74-12.79-18.95-24-26-16.64-4.9-18-17-18-17 0 0-0.73-18.89 1-43-0.25-14.36 13-16 13-16l398-1c14.22-0.25 17 14 17 14zm-309 27c0 0-0.14 46.46 0 52 0.14 5.54 4.69 15.94 14 16 3.33 0.02 52.4 0.12 56 0 9.97-0.34 13.79-8.08 14-17 0.08-3.43 0.05-50.15 0-52-0.18-6.57-7.29-12.91-13-13-9.66-0.15-52.51-0.24-56 0-7.97 0.55-15.14 6.38-15 14zm24 8h37v38h-37zm80-8c0 0-0.14 46.46 0 52 0.14 5.54 4.69 15.94 14 16 3.33 0.02 52.4 0.12 56 0 9.97-0.34 13.79-8.08 14-17 0.08-3.43 0.05-50.15 0-52-0.18-6.57-7.29-12.91-13-13-9.66-0.15-52.51-0.24-56 0-7.97 0.55-15.14 6.38-15 14zm24 8h37v38h-37zm-128 94c0 0-0.14 46.46 0 52 0.14 5.54 4.69 15.94 14 16 3.33 0.02 52.4 0.12 56 0 9.97-0.34 13.79-8.08 14-17 0.08-3.43 0.05-50.15 0-52-0.18-6.57-7.29-12.91-13-13-9.66-0.15-52.51-0.24-56 0-7.97 0.55-15.14 6.38-15 14zm24 8h37v38h-37zm85.79-13v31c0 0 3.25 7.99 11.21 8 7.95 0.01 12-8 12-8l1-31c0 0-2.56-8.91-12-9-9.45-0.09-12.21 9-12.21 9zm36.21-2l-1 54h-29c0 0-6.21 2.91-6.21 12 0 9.09 6.21 10 6.21 10h42c0 0 9.98 0.38 10-8 0.02-8.38 1-35 1-35h18c0 0 4.66-0.5 5-12 0.34-11.5-5-11-5-11h-17v-10c0 0-1.2-7.1-12-7-10.8 0.1-12 7-12 7z"/>
	</g>
</svg>